<svg id="SvgjsSvg1023" width="288" height="288" xmlns="http://www.w3.org/2000/svg" version="1.1" xmlns:xlink="http://www.w3.org/1999/xlink" xmlns:svgjs="http://svgjs.com/svgjs"><circle id="SvgjsCircle1032" r="144" cx="144" cy="144" transform="matrix(1,0,0,1,0,0)" fill="#2b4052"></circle><defs id="SvgjsDefs1024"></defs><g id="SvgjsG1025" transform="matrix(0.82,0,0,0.82,25.920808868408216,25.918704986572266)"><svg xmlns="http://www.w3.org/2000/svg" data-name="Layer 1" viewBox="0 0 200 200" width="288" height="288"><path d="M75 71.09v-10c0-14.28 11.15-25.93 25-25.93s25 11.65 25 25.93v10h17.28A3.13 3.13 0 0 1 145.4 74l5.94 87.5a3.14 3.14 0 0 1-2.91 3.33H51.78a3.12 3.12 0 0 1-3.12-3.12v-.21L54.6 74a3.13 3.13 0 0 1 3.12-2.92Zm9.38 0h31.25v-10c0-9.19-7-16.56-15.63-16.56S84.38 51.9 84.38 61.09Zm-25.91 84.38h83.06l-5.08-75H63.56Z" fill="#ffffff" class="color000 svgShape"></path></svg></g></svg>